<?xml version="1.0" encoding="UTF-8"?>
<svg viewBox="0 0 128 128" xmlns="http://www.w3.org/2000/svg">
 <defs>
  <linearGradient id="d" x1="1.0102" x2=".42213" y1=".7771" y2=".052977">
   <stop stop-color="#a00" stop-opacity="0" offset="0"/>
   <stop stop-color="#ad0606" stop-opacity=".035" offset=".18519"/>
   <stop stop-color="#faa" offset=".44278"/>
   <stop stop-color="#faa" stop-opacity=".047" offset=".83024"/>
   <stop stop-color="#faa" stop-opacity="0" offset="1"/>
  </linearGradient>
  <linearGradient id="c" x1=".76947" x2=".22258" y1=".61492" y2=".31762">
   <stop stop-color="#800000" offset="0"/>
   <stop stop-color="#a00" offset=".67958"/>
   <stop stop-color="#a00" offset="1"/>
  </linearGradient>
 </defs>
 <g fill-rule="evenodd" stroke="#500" stroke-width=".5">
  <rect transform="matrix(-.70711 -.7071 .70711 -.7071 0 0)" x="-98.713" y="-46.917" width="16.973" height="113.16" fill="#007fff"/>
  <rect transform="matrix(-.70711 -.7071 -.70711 .7071 0 0)" x="-98.713" y="46.917" width="16.973" height="5.6578" fill="#00f"/>
 </g>
 <path d="m30.968 105.54l-15.146 8.6324-1.6002-1.6002 8.0013-16.003 8.7453 8.9702 2e-4 2e-4z" fill="url(#c)"/>
 <path d="m30.968 105.54l-15.146 8.6324-1.6002-1.6002 8.0013-16.003 8.7453 8.9702 2e-4 2e-4z" fill="url(#d)" opacity=".6"/>
 <path d="m31.043 105.47l-15.221 8.7081-1.6002-1.6001 8.0013-16.003 8.8203 8.8953-3e-4 -6e-4z" fill="#00f" stroke="#500" stroke-width=".5"/>
 <g fill="#00f" stroke="#500" stroke-dasharray="null" stroke-width=".5">
  <ellipse transform="rotate(44.937 64.865 62.942)" cx="64.865" cy="62.942" rx="6.1289" ry="24.5"/>
  <rect transform="rotate(44.549 104.52 22.996)" x="95.902" y="14.996" width="17.235" height="16" stroke-linecap="null" stroke-linejoin="null"/>
 </g>
</svg>
